<svg width="40" height="40" viewBox="0 0 256 256" xmlns="http://www.w3.org/2000/svg" xml:space="preserve" style="fill-rule:evenodd;clip-rule:evenodd;stroke-linejoin:round;stroke-miterlimit:2"><rect x="0" y="0" width="100%" height="100%" fill="#fff"/><g transform="scale(.48)"><clipPath id="a"><path d="M533.333 266.667C533.333 119.489 413.844 0 266.667 0 119.489 0 0 119.489 0 266.667c0 147.177 119.489 266.666 266.667 266.666 147.177 0 266.666-119.489 266.666-266.666Z"/></clipPath><g clip-path="url(#a)"><path d="M258.631 347.923c-14.186-12.36-23.34-31.835-23.34-53.727 0-25.929 12.842-48.468 31.673-59.806 18.831 11.338 31.673 33.877 31.673 59.806 0 21.892-9.154 41.367-23.34 53.727v39.837a76.365 76.365 0 0 1 11.56-14.795c18.335-18.335 43.353-25.191 64.686-19.893 5.298 21.333-1.558 46.351-19.893 64.686-18.334 18.335-43.353 25.191-64.686 19.893-21.333 5.298-46.351-1.558-64.686-19.893-18.335-18.335-25.191-43.353-19.893-64.686 21.333-5.298 46.351 1.558 64.686 19.893a76.365 76.365 0 0 1 11.56 14.795v-39.837Z" style="fill:#99a334" transform="matrix(1 0 0 1 -.294 .446)"/><path d="M254.667 100.481C300.05 124.468 331 172.148 331 227c0 54.852-30.95 102.532-76.333 126.519-45.383-23.987-76.334-71.667-76.334-126.519 0-54.852 30.951-102.532 76.334-126.519Z" style="fill:#5b1877" transform="matrix(.7667 .31758 -.3618 .87345 199.318 -56.489)"/><path d="M254.667 100.481C300.05 124.468 331 172.148 331 227c0 54.852-30.95 102.532-76.333 126.519-45.383-23.987-76.334-71.667-76.334-126.519 0-54.852 30.951-102.532 76.334-126.519Z" style="fill:#2191fb" transform="matrix(.5868 .5868 -.66851 .66851 353.56 -52.602)"/><path d="M254.667 100.481C300.05 124.468 331 172.148 331 227c0 54.852-30.95 102.532-76.333 126.519-45.383-23.987-76.334-71.667-76.334-126.519 0-54.852 30.951-102.532 76.334-126.519Z" style="fill:#4262bf" transform="matrix(.7667 .31758 -.3618 .87345 199.318 -56.489)"/><path d="M254.667 100.481C300.05 124.468 331 172.148 331 227c0 54.852-30.95 102.532-76.333 126.519-45.383-23.987-76.334-71.667-76.334-126.519 0-54.852 30.951-102.532 76.334-126.519Z" style="fill:#c80e2d" transform="matrix(.5868 -.5868 .66851 .66851 -119.1 246.279)"/><path d="M254.667 100.481C300.05 124.468 331 172.148 331 227c0 54.852-30.95 102.532-76.333 126.519-45.383-23.987-76.334-71.667-76.334-126.519 0-54.852 30.951-102.532 76.334-126.519Z" style="fill:#8a0a1f" transform="matrix(.7667 -.31758 .3618 .87345 -56.485 105.264)"/><path d="M254.667 100.481C300.05 124.468 331 172.148 331 227c0 54.852-30.95 102.532-76.333 126.519-45.383-23.987-76.334-71.667-76.334-126.519 0-54.852 30.951-102.532 76.334-126.519Z" style="fill:#5b1877" transform="matrix(.82987 0 0 .94542 55.329 -1.053)"/></g></g></svg>